<?xml version="1.0" encoding="UTF-8"?>
<svg width="989px" height="116px" viewBox="0 0 989 116" version="1.1" xmlns="http://www.w3.org/2000/svg" xmlns:xlink="http://www.w3.org/1999/xlink">
    <title>RSM_Logo_hinten_weiss_348x40mm</title>
    <defs>
        <polygon id="path-1" points="0 0 1059.506 0 1059.506 213.191 0 213.191"></polygon>
        <polygon id="path-3" points="0 213.191 1059.506 213.191 1059.506 0 0 0"></polygon>
    </defs>
    <g id="RSM_Logo_hinten_weiss_348x40mm" stroke="none" stroke-width="1" fill="none" fill-rule="evenodd">
        <g id="Group-3" transform="translate(-20.000000, -49.000000)">
            <mask id="mask-2" fill="white">
                <use xlink:href="#path-1"></use>
            </mask>
            <g id="Clip-2"></g>
            <path d="M1540.5082,105.2403 L1238.6372,-241.1847 C1189.7462,-297.2907 1127.1512,-339.7677 1056.9532,-364.4717 L773.4112,-464.2667 C768.6672,-467.2247 764.1792,-470.5747 759.3122,-473.4687 C750.5162,-478.7647 744.4092,-481.0267 735.4002,-476.2877 C731.3012,-474.1087 727.9282,-472.4877 723.4872,-470.7367 C708.9692,-465.1417 694.2802,-460.0617 679.4202,-455.4497 C653.4592,-447.4227 626.9432,-440.9737 600.1712,-436.2787 C570.8792,-431.1117 540.8612,-427.5247 511.0572,-427.9947 C510.9712,-427.9947 510.8862,-427.9947 510.8002,-428.0367 C510.0312,-427.9947 509.2212,-427.9947 508.4522,-428.0367 C508.3662,-427.9947 508.2802,-427.9947 508.1952,-427.9947 C500.4242,-427.8657 492.6532,-428.0797 484.9242,-428.5067 C450.5942,-430.3427 416.3922,-435.8077 383.0012,-443.7087 C358.5342,-449.4727 334.4512,-456.6877 310.7962,-465.1857 C301.0602,-468.6867 291.6662,-472.2297 282.5712,-477.0567 C271.5552,-482.9057 262.4602,-475.0067 253.4082,-468.9427 C249.5052,-466.3607 245.4482,-464.1327 241.2812,-462.1367 L-53.2298,-358.7797 C-112.9988,-337.8037 -166.4488,-301.9667 -208.5478,-254.6367 L-527.4698,103.9003 C-530.6048,107.4253 -530.2328,112.8363 -526.6438,115.8973 L-189.2248,403.8423 C-184.4758,407.8943 -177.6448,408.3963 -172.3538,405.0813 L-127.8748,377.2063 C-120.1488,372.7093 -112.6868,368.1863 -106.2128,363.6323 C-106.2838,368.1913 -117.6168,531.7693 -119.6158,609.0973 C-123.9898,778.2963 -128.3648,947.4943 -132.7418,1116.6923 C-136.1638,1249.0973 -139.5878,1381.5053 -143.0108,1513.9103 C-143.3508,1527.0193 -143.6878,1540.1233 -144.0288,1553.2313 C-144.2288,1561.0233 -144.3748,1567.7623 -134.4658,1568.9813 C-118.6738,1570.9263 -101.4708,1569.0823 -85.5908,1569.1283 C-51.9528,1569.2283 -18.3118,1569.3223 15.3252,1569.4043 C173.0722,1569.8033 330.8912,1571.1933 488.6312,1569.3933 C617.7912,1567.9183 747.1082,1569.9183 876.2942,1569.6783 C952.5422,1569.5363 1028.7902,1569.3433 1105.0382,1569.1173 C1119.8802,1569.0733 1136.1842,1570.9473 1150.9332,1568.9773 C1161.0382,1567.6273 1160.2452,1559.9903 1160.0442,1552.2293 C1157.3112,1446.5213 1154.5762,1340.8143 1151.8432,1235.1083 C1147.4192,1064.0433 1142.9952,892.9843 1138.5712,721.9243 C1135.6012,606.9733 1132.6262,492.0213 1129.6542,377.0723 C1129.5952,372.5323 1128.2732,364.5603 1128.2182,360.0153 L1189.0092,398.1103 C1197.4852,403.4223 1208.4262,402.6203 1216.0372,396.1303 L1539.3812,120.4423 C1543.9212,116.5703 1544.4282,109.7383 1540.5082,105.2403 Z" id="Stroke-1" stroke="#1A1919" mask="url(#mask-2)"></path>
        </g>
        <g id="Group-60" transform="translate(-20.000000, -49.000000)">
            <path d="M156.7103,151.4786 L135.3343,86.0896 C135.8783,86.4866 136.4713,86.8336 137.1223,87.1046 C141.5423,88.9376 146.6103,86.8436 148.4463,82.4196 C149.2533,80.4696 149.2953,78.3896 148.7113,76.5196 L148.7143,76.5196 L148.6953,76.4776 C148.5063,75.8876 148.2523,75.3196 147.9413,74.7786 L145.2553,68.7316 C145.6683,68.5606 146.0093,68.2356 146.1943,67.7916 C146.4593,67.1526 146.3093,66.4486 145.8763,65.9656 L145.7573,64.6116 C146.3453,62.6356 145.3583,60.4956 143.4113,59.6876 L134.4383,52.3306 C133.7383,51.6596 132.9113,51.0986 131.9603,50.7016 C130.9563,50.2866 129.9183,50.0916 128.8973,50.0916 C127.3023,50.0916 125.7553,50.5736 124.4443,51.4486 L110.2473,61.4886 L106.8793,62.6566 L78.1163,81.9086 C77.1973,82.1026 76.3193,82.4566 75.5203,82.9516 L57.0413,89.7016 C56.1383,89.8636 55.2723,90.1836 54.4773,90.6366 L53.3113,91.0656 L51.9393,92.9396 C51.6033,93.4186 51.3053,93.9346 51.0733,94.4966 C51.0243,94.6156 50.9903,94.7366 50.9453,94.8556 L50.2473,96.2036 L39.8173,120.0506 C39.7623,120.1106 39.7053,120.1696 39.6543,120.2296 L23.2653,138.3786 C23.0903,138.4756 22.9183,138.5806 22.7493,138.7026 C22.0243,139.2286 21.4933,139.9286 21.1733,140.7016 L21.1663,140.7106 L21.1663,140.7206 C20.5643,142.1826 20.7043,143.9096 21.7013,145.2836 L28.2473,154.2216 L33.2793,154.0716 L33.3353,153.9826 C33.9133,153.8256 34.3693,153.3426 34.4643,152.7146 C34.5933,151.8616 34.0083,151.0656 33.1563,150.9396 C32.8203,150.8876 32.4953,150.9526 32.2143,151.0956 L29.8693,145.8826 L29.8693,144.3226 L48.3243,131.0346 L48.3343,131.0276 C49.0423,130.6616 49.6893,130.1756 50.2473,129.5826 L65.5323,117.9526 L74.2603,127.0826 L76.5013,151.8526 C76.3683,152.1166 76.2593,152.4006 76.2133,152.7106 C75.9783,154.2636 77.0463,155.7106 78.5993,155.9426 C78.8573,155.9816 79.1103,155.9756 79.3563,155.9426 L88.5743,155.9426 C88.6463,155.9586 88.7153,155.9876 88.7883,155.9966 C90.3243,156.2296 91.7583,155.1726 91.9893,153.6336 C92.2213,152.0986 91.1643,150.6656 89.6253,150.4346 C89.2963,150.3826 88.9733,150.4056 88.6653,150.4666 C88.3983,142.9306 87.7933,126.1406 87.6013,123.5306 L80.4993,112.6246 L91.7583,114.0886 C95.7323,115.4386 100.1893,115.4136 104.3723,113.6856 C105.1193,113.3766 105.8293,113.0186 106.5093,112.6246 L106.6423,128.0466 C106.9393,128.9086 102.9893,150.6066 102.9893,150.6066 L102.9893,150.6166 C102.0993,150.9736 101.4053,151.7756 101.2533,152.7966 C101.0223,154.3326 102.0793,155.7676 103.6163,155.9966 C103.8773,156.0386 104.1323,156.0266 104.3823,155.9966 L112.4703,155.9756 L112.5033,155.9366 C113.8883,155.7476 114.9643,154.5736 114.9643,153.1366 L119.8123,127.8456 L119.8123,106.0306 L134.3593,132.3446 L144.3073,150.3256 L144.3833,150.6666 C143.5603,151.0536 142.9373,151.8316 142.7913,152.7966 C142.5603,154.3326 143.6173,155.7676 145.1533,155.9966 C145.4633,156.0446 145.7643,156.0266 146.0543,155.9756 L154.4113,155.9756 C155.9793,155.9756 157.2493,154.7036 157.2493,153.1366 C157.2493,152.5166 157.0463,151.9446 156.7103,151.4786" id="Fill-4" fill="#FFFFFF"></path>
            <path d="M201.9837,101.0992 L201.9837,121.0512 L187.1697,121.0512 L187.1697,66.2212 L205.1337,66.2212 C220.0337,66.2212 227.4837,71.6222 227.4837,82.4222 C227.4837,88.7732 224.3837,93.6862 218.1847,97.1612 L234.1597,121.0512 L217.3577,121.0512 L205.7327,101.0992 L201.9837,101.0992 Z M201.9837,89.9612 L204.7587,89.9612 C209.9337,89.9612 212.5227,87.6752 212.5227,83.0982 C212.5227,79.3242 209.9837,77.4352 204.9077,77.4352 L201.9837,77.4352 L201.9837,89.9612 Z" id="Fill-6" fill="#FFFFFF"></path>
            <polygon id="Fill-8" fill="#FFFFFF" points="287.0609 121.0508 254.5089 121.0508 254.5089 66.2218 287.0609 66.2218 287.0609 78.1098 269.3219 78.1098 269.3219 86.7358 285.7489 86.7358 285.7489 98.6258 269.3219 98.6258 269.3219 108.9738 287.0609 108.9738"></polygon>
            <path d="M345.5853,121.0508 L342.8863,110.7748 L325.0713,110.7748 L322.2963,121.0508 L306.0203,121.0508 L323.9083,65.9978 L343.6743,65.9978 L361.7863,121.0508 L345.5853,121.0508 Z M339.8113,98.6258 L337.4483,89.6228 C336.8973,87.6238 336.2293,85.0358 335.4413,81.8608 C334.6533,78.6848 334.1353,76.4118 333.8853,75.0348 C333.6603,76.3088 333.2163,78.4088 332.5543,81.3348 C331.8903,84.2608 330.4213,90.0228 328.1473,98.6258 L339.8113,98.6258 Z" id="Fill-10" fill="#FFFFFF"></path>
            <path d="M429.6136,92.4732 C429.6136,101.6252 427.0936,108.6762 422.0566,113.6262 C417.0186,118.5762 409.9376,121.0512 400.8116,121.0512 L383.0726,121.0512 L383.0726,66.2222 L402.0496,66.2222 C410.8496,66.2222 417.6446,68.4712 422.4326,72.9722 C427.2196,77.4722 429.6136,83.9742 429.6136,92.4732 M414.2376,92.9992 C414.2376,87.9732 413.2436,84.2502 411.2566,81.8242 C409.2686,79.3982 406.2496,78.1852 402.1986,78.1852 L397.8866,78.1852 L397.8866,108.9002 L401.1866,108.9002 C405.6866,108.9002 408.9876,107.5922 411.0876,104.9802 C413.1866,102.3692 414.2376,98.3742 414.2376,92.9992" id="Fill-12" fill="#FFFFFF"></path>
            <polygon id="Fill-14" fill="#FFFFFF" points="469.7684 86.5474 479.2194 66.2224 495.2694 66.2224 477.2314 99.6374 477.2314 121.0504 462.3054 121.0504 462.3054 100.0874 444.2664 66.2224 460.3924 66.2224"></polygon>
            <path d="M576.8148,104.399 C576.8148,107.799 575.9528,110.819 574.2288,113.457 C572.5028,116.094 570.0148,118.145 566.7648,119.606 C563.5138,121.071 559.7018,121.802 555.3268,121.802 C551.6748,121.802 548.6128,121.544 546.1378,121.03 C543.6638,120.521 541.0868,119.626 538.4138,118.349 L538.4138,105.149 C541.2388,106.599 544.1758,107.731 547.2258,108.543 C550.2748,109.357 553.0768,109.762 555.6258,109.762 C557.8268,109.762 559.4388,109.382 560.4648,108.619 C561.4878,107.856 562.0018,106.876 562.0018,105.675 C562.0018,104.925 561.7958,104.269 561.3838,103.706 C560.9698,103.144 560.3068,102.574 559.3948,101.999 C558.4818,101.426 556.0508,100.25 552.0998,98.474 C548.5248,96.85 545.8438,95.274 544.0558,93.75 C542.2698,92.224 540.9448,90.475 540.0808,88.499 C539.2178,86.524 538.7888,84.186 538.7888,81.485 C538.7888,76.435 540.6248,72.497 544.3008,69.671 C547.9758,66.848 553.0258,65.434 559.4518,65.434 C565.1268,65.434 570.9148,66.747 576.8148,69.371 L572.2778,80.811 C567.1518,78.46 562.7268,77.284 559.0018,77.284 C557.0758,77.284 555.6758,77.622 554.8008,78.297 C553.9248,78.973 553.4888,79.809 553.4888,80.811 C553.4888,81.884 554.0438,82.849 555.1568,83.698 C556.2708,84.549 559.2898,86.098 564.2138,88.347 C568.9398,90.475 572.2208,92.754 574.0578,95.193 C575.8958,97.631 576.8148,100.698 576.8148,104.399" id="Fill-16" fill="#FFFFFF"></path>
            <polygon id="Fill-18" fill="#FFFFFF" points="633.1273 121.0508 600.5763 121.0508 600.5763 66.2218 633.1273 66.2218 633.1273 78.1098 615.3893 78.1098 615.3893 86.7358 631.8153 86.7358 631.8153 98.6258 615.3893 98.6258 615.3893 108.9738 633.1273 108.9738"></polygon>
            <polygon id="Fill-20" fill="#FFFFFF" points="682.2015 121.0508 667.3885 121.0508 667.3885 78.3338 654.0005 78.3338 654.0005 66.2218 695.5535 66.2218 695.5535 78.3338 682.2015 78.3338"></polygon>
            <path d="M767.2006,121.0508 L755.9866,81.5588 L755.6506,81.5588 C756.1756,88.2868 756.4356,93.5118 756.4356,97.2358 L756.4356,121.0508 L743.3106,121.0508 L743.3106,66.2218 L763.0376,66.2218 L774.4756,105.1498 L774.7756,105.1498 L785.9886,66.2218 L805.7546,66.2218 L805.7546,121.0508 L792.1396,121.0508 L792.1396,97.0108 C792.1396,95.7608 792.1596,94.3748 792.1946,92.8498 C792.2336,91.3228 792.4006,87.5868 792.7016,81.6338 L792.3636,81.6338 L781.3006,121.0508 L767.2006,121.0508 Z" id="Fill-22" fill="#FFFFFF"></path>
            <path d="M884.2299,77.7823 C884.2299,87.0093 881.9679,94.0223 877.4409,98.8233 C872.9159,103.6223 866.2899,106.0223 857.5649,106.0223 C848.9649,106.0223 842.3729,103.6113 837.7849,98.7833 C833.1959,93.9603 830.9019,86.9343 830.9019,77.7073 C830.9019,68.5833 833.1849,61.6143 837.7469,56.8013 C842.3089,51.9883 848.9409,49.5813 857.6399,49.5813 C866.3649,49.5813 872.9799,51.9703 877.4809,56.7443 C881.9809,61.5193 884.2299,68.5333 884.2299,77.7823 M846.5009,77.7823 C846.5009,88.3833 850.1909,93.6833 857.5649,93.6833 C861.3159,93.6833 864.0979,92.3983 865.9119,89.8233 C867.7239,87.2473 868.6279,83.2353 868.6279,77.7823 C868.6279,72.3083 867.7119,68.2653 865.8729,65.6523 C864.0359,63.0393 861.2919,61.7313 857.6399,61.7313 C850.2169,61.7313 846.5009,67.0833 846.5009,77.7823" id="Fill-24" fill="#FFFFFF"></path>
            <path d="M937.5941,81.9996 L954.1691,81.9996 L936.2061,136.8286 L918.7661,136.8286 L900.8791,81.9996 L917.5291,81.9996 L924.9901,109.7906 C926.5421,115.9656 927.3921,120.2656 927.5411,122.6896 C927.7151,120.9406 928.0681,118.7516 928.5921,116.1266 C929.1181,113.5016 929.5801,111.4396 929.9791,109.9396 L937.5941,81.9996 Z" id="Fill-26" fill="#FFFFFF"></path>
            <polygon id="Fill-28" fill="#FFFFFF" points="975.4554 66.2223 975.4554 121.0493 1008.0084 121.0493 1008.0084 108.9763 990.2684 108.9763 990.2684 98.6263 1006.6944 98.6263 1006.6944 86.7363 990.2684 86.7363 990.2684 78.1103 1008.0084 78.1103 1008.0084 66.2223"></polygon>
            <path d="M203.2889,140.7955 C203.2889,143.0965 202.5049,144.8645 200.9349,146.1025 C199.3639,147.3405 197.1189,147.9595 194.1959,147.9595 L191.5209,147.9595 L191.5209,156.8995 L188.8789,156.8995 L188.8789,134.1715 L194.7699,134.1715 C200.4489,134.1715 203.2889,136.3795 203.2889,140.7955 L203.2889,140.7955 Z M191.5209,145.6915 L193.8999,145.6915 C196.2419,145.6915 197.9349,145.3145 198.9829,144.5575 C200.0279,143.7995 200.5529,142.5865 200.5529,140.9185 C200.5529,139.4165 200.0609,138.2955 199.0749,137.5625 C198.0909,136.8265 196.5579,136.4595 194.4749,136.4595 L191.5209,136.4595 L191.5209,145.6915 Z" id="Fill-30" fill="#FFFFFF"></path>
            <path d="M221.2206,157.2091 C218.7016,157.2091 216.7146,156.4421 215.2596,154.9081 C213.8046,153.3751 213.0756,151.2461 213.0756,148.5211 C213.0756,145.7741 213.7526,143.5931 215.1036,141.9781 C216.4566,140.3581 218.2716,139.5511 220.5536,139.5511 C222.6866,139.5511 224.3756,140.2531 225.6196,141.6581 C226.8636,143.0621 227.4856,144.9141 227.4856,147.2131 L227.4856,148.8461 L215.7496,148.8461 C215.8026,150.8491 216.3066,152.3631 217.2646,153.4011 C218.2226,154.4371 219.5726,154.9551 221.3146,154.9551 C223.1486,154.9551 224.9616,154.5721 226.7546,153.8061 L226.7546,156.1061 C225.8436,156.5001 224.9796,156.7821 224.1666,156.9541 C223.3526,157.1231 222.3706,157.2091 221.2206,157.2091 M220.5226,141.7111 C219.1536,141.7111 218.0636,142.1581 217.2506,143.0491 C216.4356,143.9411 215.9556,145.1731 215.8116,146.7501 L224.7186,146.7501 C224.7186,145.1201 224.3546,143.8741 223.6306,143.0091 C222.9046,142.1451 221.8686,141.7111 220.5226,141.7111" id="Fill-32" fill="#FFFFFF"></path>
            <path d="M246.0233,139.5513 C246.7803,139.5513 247.4593,139.6133 248.0593,139.7383 L247.7023,142.1323 C246.9973,141.9773 246.3753,141.8983 245.8363,141.8983 C244.4583,141.8983 243.2793,142.4563 242.2993,143.5773 C241.3203,144.6963 240.8303,146.0913 240.8303,147.7593 L240.8303,156.8993 L238.2513,156.8993 L238.2513,139.8623 L240.3803,139.8623 L240.6763,143.0183 L240.7993,143.0183 C241.4313,141.9093 242.1923,141.0553 243.0843,140.4513 C243.9753,139.8503 244.9563,139.5513 246.0233,139.5513" id="Fill-34" fill="#FFFFFF"></path>
            <path d="M268.6029,152.2501 C268.6029,153.8361 268.0139,155.0581 266.8319,155.9201 C265.6509,156.7801 263.9909,157.2091 261.8569,157.2091 C259.5989,157.2091 257.8349,156.8521 256.5719,156.1381 L256.5719,153.7421 C257.3899,154.1581 258.2689,154.4841 259.2069,154.7221 C260.1449,154.9621 261.0489,155.0811 261.9189,155.0811 C263.2649,155.0811 264.3029,154.8641 265.0289,154.4361 C265.7529,154.0041 266.1169,153.3511 266.1169,152.4681 C266.1169,151.8051 265.8279,151.2371 265.2539,150.7661 C264.6779,150.2951 263.5579,149.7381 261.8879,149.0951 C260.3019,148.5051 259.1749,147.9891 258.5069,147.5471 C257.8379,147.1071 257.3419,146.6091 257.0149,146.0491 C256.6889,145.4901 256.5249,144.8211 256.5249,144.0451 C256.5249,142.6551 257.0899,141.5591 258.2199,140.7551 C259.3489,139.9531 260.8989,139.5521 262.8679,139.5521 C264.7009,139.5521 266.4939,139.9231 268.2459,140.6691 L267.3279,142.7701 C265.6199,142.0651 264.0689,141.7111 262.6809,141.7111 C261.4579,141.7111 260.5359,141.9051 259.9139,142.2881 C259.2919,142.6711 258.9819,143.1991 258.9819,143.8731 C258.9819,144.3271 259.0989,144.7171 259.3309,145.0391 C259.5639,145.3601 259.9399,145.6671 260.4569,145.9551 C260.9759,146.2451 261.9709,146.6661 263.4419,147.2131 C265.4619,147.9521 266.8279,148.6901 267.5389,149.4371 C268.2489,150.1831 268.6029,151.1201 268.6029,152.2501" id="Fill-36" fill="#FFFFFF"></path>
            <path d="M293.8724,148.3648 C293.8724,151.1428 293.1724,153.3108 291.7724,154.8698 C290.3744,156.4298 288.4424,157.2098 285.9754,157.2098 C284.4524,157.2098 283.1004,156.8528 281.9194,156.1368 C280.7374,155.4218 279.8264,154.3958 279.1834,153.0598 C278.5394,151.7208 278.2184,150.1588 278.2184,148.3648 C278.2184,145.5868 278.9134,143.4238 280.3024,141.8758 C281.6904,140.3268 283.6184,139.5518 286.0844,139.5518 C288.4684,139.5518 290.3614,140.3438 291.7664,141.9278 C293.1704,143.5158 293.8724,145.6598 293.8724,148.3648 M280.8934,148.3648 C280.8934,150.5428 281.3284,152.1988 282.1984,153.3388 C283.0694,154.4798 284.3484,155.0508 286.0394,155.0508 C287.7264,155.0508 289.0094,154.4818 289.8844,153.3468 C290.7614,152.2118 291.1994,150.5508 291.1994,148.3648 C291.1994,146.1988 290.7614,144.5548 289.8844,143.4298 C289.0094,142.3048 287.7164,141.7448 286.0064,141.7448 C284.3174,141.7448 283.0424,142.2968 282.1824,143.4058 C281.3214,144.5148 280.8934,146.1678 280.8934,148.3648" id="Fill-38" fill="#FFFFFF"></path>
            <path d="M316.4222,156.899 L316.4222,145.878 C316.4222,144.488 316.1052,143.452 315.4732,142.77 C314.8422,142.085 313.8512,141.744 312.5052,141.744 C310.7222,141.744 309.4172,142.226 308.5872,143.187 C307.7582,144.152 307.3432,145.743 307.3432,147.96 L307.3432,156.899 L304.7632,156.899 L304.7632,139.861 L306.8622,139.861 L307.2812,142.193 L307.4062,142.193 C307.9342,141.354 308.6742,140.704 309.6302,140.243 C310.5832,139.782 311.6452,139.551 312.8152,139.551 C314.8662,139.551 316.4102,140.046 317.4482,141.036 C318.4832,142.026 319.0022,143.607 319.0022,145.785 L319.0022,156.899 L316.4222,156.899 Z" id="Fill-40" fill="#FFFFFF"></path>
            <path d="M341.1468,156.899 L340.6338,154.473 L340.5098,154.473 C339.6588,155.541 338.8138,156.266 337.9688,156.642 C337.1228,157.021 336.0688,157.209 334.8058,157.209 C333.1148,157.209 331.7918,156.775 330.8338,155.903 C329.8738,155.035 329.3948,153.795 329.3948,152.188 C329.3948,148.747 332.1468,146.945 337.6488,146.781 L340.5408,146.685 L340.5408,145.629 C340.5408,144.293 340.2538,143.304 339.6788,142.669 C339.1028,142.031 338.1828,141.711 336.9198,141.711 C335.4988,141.711 333.8928,142.146 332.1008,143.018 L331.3078,141.044 C332.1468,140.589 333.0658,140.23 334.0668,139.972 C335.0648,139.712 336.0688,139.582 337.0738,139.582 C339.1048,139.582 340.6108,140.034 341.5898,140.933 C342.5688,141.836 343.0598,143.283 343.0598,145.272 L343.0598,156.899 L341.1468,156.899 Z M335.3188,155.08 C336.9228,155.08 338.1868,154.64 339.1028,153.758 C340.0198,152.877 340.4798,151.644 340.4798,150.059 L340.4798,148.522 L337.8968,148.628 C335.8468,148.702 334.3668,149.022 333.4598,149.585 C332.5538,150.15 332.1008,151.028 332.1008,152.219 C332.1008,153.152 332.3828,153.864 332.9478,154.349 C333.5118,154.836 334.3018,155.08 335.3188,155.08 L335.3188,155.08 Z" id="Fill-42" fill="#FFFFFF"></path>
            <mask id="mask-4" fill="white">
                <use xlink:href="#path-3"></use>
            </mask>
            <g id="Clip-45"></g>
            <polygon id="Fill-44" fill="#FFFFFF" mask="url(#mask-4)" points="354.742 156.899 357.322 156.899 357.322 132.712 354.742 132.712"></polygon>
            <polygon id="Fill-46" fill="#FFFFFF" mask="url(#mask-4)" points="391.1825 156.899 388.5405 156.899 388.5405 136.52 381.3415 136.52 381.3415 134.171 398.3795 134.171 398.3795 136.52 391.1825 136.52"></polygon>
            <path d="M415.5492,139.5513 C416.3062,139.5513 416.9852,139.6133 417.5852,139.7383 L417.2282,142.1323 C416.5232,141.9773 415.9022,141.8983 415.3622,141.8983 C413.9842,141.8983 412.8052,142.4563 411.8252,143.5773 C410.8462,144.6963 410.3562,146.0913 410.3562,147.7593 L410.3562,156.8993 L407.7782,156.8993 L407.7782,139.8623 L409.9062,139.8623 L410.2022,143.0183 L410.3252,143.0183 C410.9572,141.9093 411.7182,141.0553 412.6102,140.4513 C413.5022,139.8503 414.4812,139.5513 415.5492,139.5513" id="Fill-47" fill="#FFFFFF" mask="url(#mask-4)"></path>
            <path d="M437.6156,156.899 L437.1026,154.473 L436.9796,154.473 C436.1286,155.541 435.2826,156.266 434.4376,156.642 C433.5926,157.021 432.5376,157.209 431.2746,157.209 C429.5846,157.209 428.2616,156.775 427.3026,155.903 C426.3436,155.035 425.8646,153.795 425.8646,152.188 C425.8646,148.747 428.6166,146.945 434.1176,146.781 L437.0106,146.685 L437.0106,145.629 C437.0106,144.293 436.7226,143.304 436.1476,142.669 C435.5716,142.031 434.6526,141.711 433.3886,141.711 C431.9686,141.711 430.3626,142.146 428.5696,143.018 L427.7776,141.044 C428.6166,140.589 429.5356,140.23 430.5356,139.972 C431.5346,139.712 432.5376,139.582 433.5436,139.582 C435.5746,139.582 437.0796,140.034 438.0586,140.933 C439.0386,141.836 439.5286,143.283 439.5286,145.272 L439.5286,156.899 L437.6156,156.899 Z M431.7876,155.08 C433.3926,155.08 434.6556,154.64 435.5716,153.758 C436.4886,152.877 436.9486,151.644 436.9486,150.059 L436.9486,148.522 L434.3666,148.628 C432.3156,148.702 430.8366,149.022 429.9296,149.585 C429.0226,150.15 428.5696,151.028 428.5696,152.219 C428.5696,153.152 428.8516,153.864 429.4166,154.349 C429.9806,154.836 430.7716,155.08 431.7876,155.08 L431.7876,155.08 Z" id="Fill-48" fill="#FFFFFF" mask="url(#mask-4)"></path>
            <path d="M450.9935,135.2457 C450.9935,134.6527 451.1385,134.2227 451.4285,133.9467 C451.7195,133.6727 452.0815,133.5357 452.5165,133.5357 C452.9305,133.5357 453.2895,133.6737 453.5905,133.9567 C453.8905,134.2357 454.0395,134.6647 454.0395,135.2457 C454.0395,135.8257 453.8905,136.2587 453.5905,136.5427 C453.2895,136.8287 452.9305,136.9717 452.5165,136.9717 C452.0815,136.9717 451.7195,136.8287 451.4285,136.5427 C451.1385,136.2587 450.9935,135.8257 450.9935,135.2457 L450.9935,135.2457 Z M451.2105,156.8977 L453.7915,156.8977 L453.7915,139.8607 L451.2105,139.8607 L451.2105,156.8977 Z" id="Fill-49" fill="#FFFFFF" mask="url(#mask-4)"></path>
            <path d="M477.2894,156.899 L477.2894,145.878 C477.2894,144.488 476.9734,143.452 476.3414,142.77 C475.7094,142.085 474.7194,141.744 473.3724,141.744 C471.5904,141.744 470.2844,142.226 469.4544,143.187 C468.6264,144.152 468.2104,145.743 468.2104,147.96 L468.2104,156.899 L465.6304,156.899 L465.6304,139.861 L467.7304,139.861 L468.1494,142.193 L468.2744,142.193 C468.8014,141.354 469.5424,140.704 470.4974,140.243 C471.4504,139.782 472.5124,139.551 473.6834,139.551 C475.7344,139.551 477.2784,140.046 478.3154,141.036 C479.3504,142.026 479.8704,143.607 479.8704,145.785 L479.8704,156.899 L477.2894,156.899 Z" id="Fill-50" fill="#FFFFFF" mask="url(#mask-4)"></path>
            <path d="M491.3197,135.2457 C491.3197,134.6527 491.4647,134.2227 491.7557,133.9467 C492.0457,133.6727 492.4077,133.5357 492.8427,133.5357 C493.2567,133.5357 493.6157,133.6737 493.9167,133.9567 C494.2167,134.2357 494.3657,134.6647 494.3657,135.2457 C494.3657,135.8257 494.2167,136.2587 493.9167,136.5427 C493.6157,136.8287 493.2567,136.9717 492.8427,136.9717 C492.4077,136.9717 492.0457,136.8287 491.7557,136.5427 C491.4647,136.2587 491.3197,135.8257 491.3197,135.2457 L491.3197,135.2457 Z M491.5377,156.8977 L494.1177,156.8977 L494.1177,139.8607 L491.5377,139.8607 L491.5377,156.8977 Z" id="Fill-51" fill="#FFFFFF" mask="url(#mask-4)"></path>
            <path d="M517.6156,156.899 L517.6156,145.878 C517.6156,144.488 517.2986,143.452 516.6666,142.77 C516.0356,142.085 515.0446,141.744 513.6986,141.744 C511.9156,141.744 510.6096,142.226 509.7796,143.187 C508.9506,144.152 508.5366,145.743 508.5366,147.96 L508.5366,156.899 L505.9556,156.899 L505.9556,139.861 L508.0556,139.861 L508.4746,142.193 L508.5996,142.193 C509.1276,141.354 509.8676,140.704 510.8226,140.243 C511.7756,139.782 512.8386,139.551 514.0086,139.551 C516.0596,139.551 517.6036,140.046 518.6406,141.036 C519.6766,142.026 520.1956,143.607 520.1956,145.785 L520.1956,156.899 L517.6156,156.899 Z" id="Fill-52" fill="#FFFFFF" mask="url(#mask-4)"></path>
            <path d="M545.806,139.8619 L545.806,141.4959 L542.652,141.8669 C542.941,142.2299 543.201,142.7039 543.427,143.2879 C543.657,143.8749 543.77,144.5349 543.77,145.2729 C543.77,146.9409 543.201,148.2719 542.06,149.2669 C540.92,150.2629 539.357,150.7589 537.366,150.7589 C536.858,150.7589 536.382,150.7169 535.935,150.6339 C534.837,151.2159 534.286,151.9459 534.286,152.8269 C534.286,153.2929 534.479,153.6369 534.864,153.8599 C535.246,154.0839 535.905,154.1939 536.836,154.1939 L539.854,154.1939 C541.697,154.1939 543.114,154.5839 544.105,155.3599 C545.093,156.1379 545.589,157.2659 545.589,158.7469 C545.589,160.6339 544.832,162.0709 543.319,163.0619 C541.805,164.0519 539.598,164.5459 536.697,164.5459 C534.469,164.5459 532.75,164.1319 531.544,163.3039 C530.336,162.4739 529.734,161.3029 529.734,159.7909 C529.734,158.7559 530.065,157.8559 530.729,157.1009 C531.392,156.3439 532.324,155.8309 533.526,155.5629 C533.092,155.3649 532.727,155.0579 532.429,154.6459 C532.135,154.2319 531.988,153.7489 531.988,153.1989 C531.988,152.5779 532.154,152.0339 532.485,151.5689 C532.816,151.1009 533.34,150.6489 534.055,150.2139 C533.174,149.8539 532.457,149.2349 531.902,148.3639 C531.346,147.4959 531.07,146.4999 531.07,145.3799 C531.07,143.5159 531.63,142.0769 532.749,141.0659 C533.868,140.0549 535.452,139.5519 537.505,139.5519 C538.397,139.5519 539.199,139.6559 539.915,139.8619 L545.806,139.8619 Z M532.221,159.7589 C532.221,160.6809 532.61,161.3809 533.386,161.8589 C534.163,162.3339 535.278,162.5729 536.729,162.5729 C538.894,162.5729 540.498,162.2479 541.539,161.5999 C542.579,160.9539 543.101,160.0749 543.101,158.9659 C543.101,158.0439 542.817,157.4039 542.247,157.0469 C541.677,156.6899 540.604,156.5089 539.029,156.5089 L535.935,156.5089 C534.764,156.5089 533.854,156.7909 533.199,157.3509 C532.546,157.9089 532.221,158.7129 532.221,159.7589 L532.221,159.7589 Z M533.619,145.3179 C533.619,146.5099 533.955,147.4109 534.629,148.0239 C535.303,148.6339 536.241,148.9389 537.444,148.9389 C539.96,148.9389 541.221,147.7179 541.221,145.2729 C541.221,142.7119 539.946,141.4309 537.397,141.4309 C536.184,141.4309 535.251,141.7589 534.599,142.4109 C533.946,143.0639 533.619,144.0339 533.619,145.3179 L533.619,145.3179 Z" id="Fill-53" fill="#FFFFFF" mask="url(#mask-4)"></path>
            <path d="M570.6957,134.1719 L577.1147,134.1719 C580.1307,134.1719 582.3127,134.6229 583.6607,135.5259 C585.0077,136.4259 585.6807,137.8519 585.6807,139.7999 C585.6807,141.1479 585.3057,142.2579 584.5537,143.1349 C583.8017,144.0109 582.7067,144.5769 581.2657,144.8369 L581.2657,144.9929 C584.7177,145.5829 586.4427,147.3959 586.4427,150.4309 C586.4427,152.4629 585.7557,154.0469 584.3837,155.1889 C583.0087,156.3289 581.0907,156.8989 578.6237,156.8989 L570.6957,156.8989 L570.6957,134.1719 Z M573.3387,143.9029 L577.6917,143.9029 C579.5567,143.9029 580.8987,143.6099 581.7167,143.0249 C582.5357,142.4389 582.9467,141.4529 582.9467,140.0649 C582.9467,138.7899 582.4887,137.8689 581.5777,137.3039 C580.6647,136.7409 579.2147,136.4579 577.2257,136.4579 L573.3387,136.4579 L573.3387,143.9029 Z M573.3387,146.1409 L573.3387,154.6449 L578.0797,154.6449 C579.9127,154.6449 581.2957,154.2909 582.2217,153.5799 C583.1487,152.8699 583.6137,151.7589 583.6137,150.2449 C583.6137,148.8369 583.1387,147.7989 582.1907,147.1359 C581.2427,146.4739 579.8007,146.1409 577.8617,146.1409 L573.3387,146.1409 Z" id="Fill-54" fill="#FFFFFF" mask="url(#mask-4)"></path>
            <path d="M604.4994,157.2091 C601.9804,157.2091 599.9934,156.4421 598.5384,154.9081 C597.0814,153.3751 596.3534,151.2461 596.3534,148.5211 C596.3534,145.7741 597.0314,143.5931 598.3824,141.9781 C599.7344,140.3581 601.5504,139.5511 603.8314,139.5511 C605.9654,139.5511 607.6544,140.2531 608.8974,141.6581 C610.1424,143.0621 610.7644,144.9141 610.7644,147.2131 L610.7644,148.8461 L599.0284,148.8461 C599.0804,150.8491 599.5854,152.3631 600.5434,153.4011 C601.5014,154.4371 602.8514,154.9551 604.5934,154.9551 C606.4274,154.9551 608.2404,154.5721 610.0334,153.8061 L610.0334,156.1061 C609.1224,156.5001 608.2584,156.7821 607.4444,156.9541 C606.6314,157.1231 605.6484,157.2091 604.4994,157.2091 M603.8014,141.7111 C602.4324,141.7111 601.3414,142.1581 600.5284,143.0491 C599.7144,143.9411 599.2344,145.1731 599.0904,146.7501 L607.9974,146.7501 C607.9974,145.1201 607.6334,143.8741 606.9084,143.0091 C606.1834,142.1451 605.1464,141.7111 603.8014,141.7111" id="Fill-55" fill="#FFFFFF" mask="url(#mask-4)"></path>
            <path d="M629.3021,139.5513 C630.0591,139.5513 630.7381,139.6133 631.3381,139.7383 L630.9811,142.1323 C630.2771,141.9773 629.6551,141.8983 629.1151,141.8983 C627.7371,141.8983 626.5581,142.4563 625.5781,143.5773 C624.6001,144.6963 624.1091,146.0913 624.1091,147.7593 L624.1091,156.8993 L621.5311,156.8993 L621.5311,139.8623 L623.6591,139.8623 L623.9541,143.0183 L624.0781,143.0183 C624.7101,141.9093 625.4711,141.0553 626.3631,140.4513 C627.2541,139.8503 628.2341,139.5513 629.3021,139.5513" id="Fill-56" fill="#FFFFFF" mask="url(#mask-4)"></path>
            <polygon id="Fill-57" fill="#FFFFFF" mask="url(#mask-4)" points="640.892 156.899 643.473 156.899 643.473 132.712 640.892 132.712"></polygon>
            <path d="M655.0931,135.2457 C655.0931,134.6527 655.2381,134.2227 655.5291,133.9467 C655.8181,133.6727 656.1811,133.5357 656.6161,133.5357 C657.0301,133.5357 657.3891,133.6737 657.6901,133.9567 C657.9901,134.2357 658.1401,134.6647 658.1401,135.2457 C658.1401,135.8257 657.9901,136.2587 657.6901,136.5427 C657.3891,136.8287 657.0301,136.9717 656.6161,136.9717 C656.1811,136.9717 655.8181,136.8287 655.5291,136.5427 C655.2381,136.2587 655.0931,135.8257 655.0931,135.2457 L655.0931,135.2457 Z M655.3111,156.8977 L657.8911,156.8977 L657.8911,139.8607 L655.3111,139.8607 L655.3111,156.8977 Z" id="Fill-58" fill="#FFFFFF" mask="url(#mask-4)"></path>
            <path d="M681.389,156.899 L681.389,145.878 C681.389,144.488 681.073,143.452 680.441,142.77 C679.81,142.085 678.819,141.744 677.473,141.744 C675.69,141.744 674.384,142.226 673.554,143.187 C672.726,144.152 672.311,145.743 672.311,147.96 L672.311,156.899 L669.731,156.899 L669.731,139.861 L671.83,139.861 L672.249,142.193 L672.374,142.193 C672.902,141.354 673.642,140.704 674.597,140.243 C675.55,139.782 676.612,139.551 677.783,139.551 C679.834,139.551 681.378,140.046 682.415,141.036 C683.451,142.026 683.97,143.607 683.97,145.785 L683.97,156.899 L681.389,156.899 Z" id="Fill-59" fill="#FFFFFF" mask="url(#mask-4)"></path>
        </g>
    </g>
</svg>