<?xml version="1.0" encoding="UTF-8"?>
<svg width="178px" height="229px" viewBox="0 0 178 229" version="1.1" xmlns="http://www.w3.org/2000/svg" xmlns:xlink="http://www.w3.org/1999/xlink">
    <title>Ready_Set_Move_Logo_Negativ_Vertikal_RGB</title>
    <g id="Page-1" stroke="none" stroke-width="1" fill="none" fill-rule="evenodd">
        <g id="Ready_Set_Move_Logo_Negativ_Vertikal_RGB" transform="translate(0.570000, 0.260000)" fill="#FFFFFF" fill-rule="nonzero">
            <path d="M169.09,125.71 L142.58,44.63 C143.26,45.12 143.99,45.55 144.8,45.89 C150.28,48.16 156.57,45.56 158.84,40.08 C159.84,37.66 159.9,35.08 159.17,32.76 L159.17,32.76 L159.15,32.71 C158.92,31.98 158.6,31.27 158.22,30.6 L154.89,23.1 L154.89,23.1 C155.4,22.89 155.82,22.49 156.05,21.94 C156.38,21.15 156.19,20.28 155.66,19.68 L155.51,18 C156.24,15.55 155.01,12.9 152.6,11.9 L141.47,2.78 C140.6,1.95 139.58,1.25 138.4,0.76 C137.16,0.24 135.87,1.42108547e-14 134.6,1.42108547e-14 C132.62,1.42108547e-14 130.7,0.6 129.08,1.68 L111.47,14.13 L107.29,15.58 L71.63,39.45 C70.49,39.69 69.4,40.13 68.41,40.74 L45.5,49.11 C44.38,49.31 43.31,49.71 42.32,50.27 L40.88,50.8 L39.18,53.13 C38.76,53.72 38.4,54.36 38.11,55.06 C38.05,55.21 38,55.36 37.95,55.5 L37.08,57.17 L24.15,86.74 C24.08,86.81 24.01,86.89 23.95,86.96 L3.63,109.47 C3.41,109.59 3.2,109.72 2.99,109.87 C2.09,110.52 1.43,111.39 1.04,112.35 L1.03,112.36 L1.03,112.37 C0.28,114.18 0.46,116.32 1.69,118.03 L9.81,129.11 L16.05,128.92 L16.12,128.81 C16.83,128.61 17.4,128.02 17.52,127.24 C17.68,126.18 16.95,125.2 15.9,125.04 C15.48,124.98 15.08,125.06 14.73,125.24 L11.82,118.78 L11.82,116.84 L34.7,100.36 L34.71,100.35 C35.59,99.9 36.39,99.29 37.08,98.56 L56.03,84.14 L66.85,95.46 L69.63,126.17 C69.46,126.5 69.33,126.85 69.27,127.24 C68.98,129.16 70.3,130.96 72.23,131.25 C72.55,131.3 72.87,131.29 73.17,131.25 L84.6,131.25 C84.69,131.27 84.77,131.3 84.86,131.32 C86.76,131.61 88.54,130.3 88.83,128.39 C89.12,126.48 87.81,124.71 85.9,124.42 C85.49,124.36 85.09,124.38 84.71,124.46 C84.38,115.12 83.63,94.3 83.39,91.06 L74.58,77.54 L88.54,79.35 C93.46,81.03 98.99,81 104.18,78.85 C105.1,78.47 105.99,78.02 106.83,77.54 L107,96.66 C107.37,97.73 102.47,124.63 102.47,124.63 L102.47,124.64 C101.36,125.09 100.51,126.08 100.32,127.34 C100.03,129.25 101.34,131.02 103.25,131.31 C103.57,131.3602 103.89,131.35 104.2,131.31 L114.23,131.28 L114.27,131.23 C115.99,131 117.32,129.54 117.32,127.75 L123.33,96.39 L123.33,69.36 L141.37,101.99 L153.71,124.28 L153.8,124.7 C152.78,125.18 152,126.14 151.82,127.34 C151.53,129.25 152.84,131.02 154.75,131.31 C155.13,131.37 155.51,131.35 155.87,131.28 L166.23,131.28 C168.18,131.28 169.750289,129.7 169.750289,127.76 C169.76,127 169.51,126.29 169.09,125.71" id="Path"></path>
            <path d="M15.58,221.86 L8.27,196.11 L8.05,196.11 C8.39,200.5 8.56,203.9 8.56,206.33 L8.56,221.86 L0,221.86 L0,186.11 L12.86,186.11 L20.32,211.49 L20.52,211.49 L27.83,186.11 L40.72,186.11 L40.72,221.86 L31.84,221.86 L31.84,206.19 C31.84,205.37 31.85,204.47 31.88,203.48 C31.9,202.49 32.01,200.05 32.21,196.17 L31.99,196.17 L24.78,221.87 L15.58,221.87 L15.58,221.86 Z M67.29,197.31 C67.29,190.33 69.71,186.84 74.55,186.84 C76.93,186.84 78.72,187.69 79.92,189.4 C81.12,191.1 81.72,193.74 81.72,197.31 C81.72,200.86 81.13,203.48 79.95,205.16 C78.77,206.84 76.95,207.68 74.51,207.68 C69.69,207.67 67.29,204.22 67.29,197.31 M91.88,197.31 C91.88,191.28 90.41,186.71 87.48,183.59 C84.54,180.48 80.23,178.92 74.54,178.92 C68.87,178.92 64.54,180.49 61.57,183.63 C58.6,186.77 57.11,191.31 57.11,197.26 C57.11,203.27 58.61,207.86 61.6,211 C64.59,214.14 68.89,215.72 74.5,215.72 C80.19,215.72 84.51,214.15 87.46,211.02 C90.41,207.89 91.88,203.32 91.88,197.31 M121.72,210.95 C121.46,211.93 121.16,213.27 120.81,214.99 C120.47,216.7 120.24,218.13 120.13,219.27 C120.03,217.69 119.48,214.88 118.47,210.86 L113.61,192.74 L102.75,192.74 L114.41,228.49 L125.78,228.49 L137.49,192.74 L126.68,192.74 L121.72,210.95 Z M172.59,213.98 L161.03,213.98 L161.03,207.23 L171.74,207.23 L171.74,199.48 L161.03,199.48 L161.03,193.86 L172.6,193.86 L172.6,186.11 L151.37,186.11 L151.37,221.86 L172.6,221.86 L172.6,213.98 L172.59,213.98 Z M5,155.04 L5.99,155.04 C7.7,155.04 8.56,155.68 8.56,156.95 C8.56,158.49 7.69,159.26 5.94,159.26 L5,159.26 L5,155.04 L5,155.04 Z M6.26,163.02 L10.18,169.75 L15.85,169.75 L10.46,161.69 C12.55,160.52 13.6,158.86 13.6,156.72 C13.6,153.07 11.08,151.25 6.06,151.25 L7.10542736e-15,151.25 L7.10542736e-15,169.75 L5,169.75 L5,163.02 L6.26,163.02 Z M33.71,165.68 L27.72,165.68 L27.72,162.19 L33.26,162.19 L33.26,158.18 L27.72,158.18 L27.72,155.27 L33.71,155.27 L33.71,151.26 L22.72,151.26 L22.72,169.76 L33.71,169.76 L33.71,165.68 Z M47.6,162.18 C48.37,159.28 48.86,157.33 49.09,156.35 C49.31,155.36 49.46,154.65 49.54,154.22 C49.63,154.68 49.8,155.45 50.07,156.52 C50.33,157.59 50.56,158.47 50.75,159.14 L51.55,162.18 L47.6,162.18 Z M58.95,169.75 L52.84,151.17 L46.17,151.17 L40.13,169.75 L45.62,169.75 L46.56,166.28 L52.57,166.28 L53.48,169.75 L58.95,169.75 Z M76.65,160.29 C76.65,162.1 76.3,163.45 75.59,164.33 C74.88,165.21 73.77,165.65 72.25,165.65 L71.14,165.65 L71.14,155.28 L72.6,155.28 C73.97,155.28 74.99,155.69 75.66,156.51 C76.31,157.33 76.65,158.59 76.65,160.29 M81.84,160.11 C81.84,157.24 81.03,155.05 79.42,153.53 C77.8,152.01 75.51,151.25 72.54,151.25 L66.14,151.25 L66.14,169.75 L72.13,169.75 C75.21,169.75 77.6,168.92 79.3,167.24 C80.99,165.58 81.84,163.2 81.84,160.11 M93.78,151.25 L88.34,151.25 L94.43,162.68 L94.43,169.75 L99.47,169.75 L99.47,162.52 L105.56,151.24 L100.14,151.24 L96.95,158.1 L93.78,151.25 Z M136.74,164.13 C136.74,162.88 136.43,161.84 135.81,161.02 C135.19,160.2 134.08,159.43 132.49,158.71 C130.83,157.95 129.81,157.43 129.43,157.14 C129.05,156.85 128.87,156.53 128.87,156.16 C128.87,155.82 129.02,155.54 129.31,155.31 C129.61,155.08 130.08,154.97 130.73,154.97 C131.99,154.97 133.48,155.37 135.21,156.16 L136.74,152.3 C134.75,151.41 132.8,150.97 130.88,150.97 C128.71,150.97 127.01,151.45 125.77,152.4 C124.53,153.36 123.91,154.68 123.91,156.39 C123.91,157.3 124.06,158.09 124.35,158.76 C124.64,159.43 125.09,160.02 125.69,160.53 C126.29,161.04 127.2,161.58 128.4,162.12 C129.73,162.72 130.55,163.12 130.86,163.31 C131.17,163.5 131.39,163.7 131.53,163.89 C131.67,164.08 131.74,164.3 131.74,164.55 C131.74,164.96 131.57,165.29 131.22,165.54 C130.87,165.8 130.33,165.93 129.59,165.93 C128.73,165.93 127.78,165.79 126.76,165.52 C125.73,165.25 124.74,164.86 123.79,164.38 L123.79,168.83 C124.69,169.26 125.56,169.56 126.4,169.73 C127.24,169.9 128.27,169.99 129.5,169.99 C130.98,169.99 132.26,169.74 133.36,169.25 C134.46,168.76 135.3,168.07 135.88,167.17 C136.45,166.3 136.74,165.28 136.74,164.13 M155.77,165.68 L149.78,165.68 L149.78,162.19 L155.32,162.19 L155.32,158.18 L149.78,158.18 L149.78,155.27 L155.77,155.27 L155.77,151.26 L144.78,151.26 L144.78,169.76 L155.77,169.76 L155.77,165.68 Z M162.84,151.25 L162.84,155.34 L167.36,155.34 L167.36,169.75 L172.36,169.75 L172.36,155.34 L176.87,155.34 L176.87,151.25 L162.84,151.25 Z" id="Shape"></path>
        </g>
    </g>
</svg>