<?xml version="1.0" encoding="UTF-8"?>
<svg width="34px" height="26px" viewBox="0 0 34 26" version="1.1" xmlns="http://www.w3.org/2000/svg" xmlns:xlink="http://www.w3.org/1999/xlink">
    <title>Artboard</title>
    <defs>
        <polygon id="path-1" points="0 0 33.556 0 33.556 26.343 0 26.343"></polygon>
    </defs>
    <g id="Artboard" stroke="none" stroke-width="1" fill="none" fill-rule="evenodd">
        <g id="_monkey-dark">
            <mask id="mask-2" fill="white">
                <use xlink:href="#path-1"></use>
            </mask>
            <g id="a"></g>
            <path d="M33.405,25.22 L28.15,8.955 C28.285,9.052 28.43,9.141 28.589,9.205 C29.1126621,9.42185605 29.7011595,9.42105819 30.2242317,9.20278303 C30.7473038,8.98450786 31.1618094,8.56675795 31.376,8.042 C31.576,7.557 31.584,7.039 31.44,6.571 L31.432,6.563 C31.3839644,6.41754305 31.32236,6.27692432 31.248,6.143 L30.586,4.639 C30.6918,4.59593165 30.7753003,4.51134694 30.817,4.405 C30.8809868,4.25164937 30.8497343,4.07507256 30.737,3.953 L30.705,3.613 C30.8525313,3.11707576 30.6053819,2.58925073 30.13,2.385 L27.926,0.557 C27.2661382,-0.0932834553 26.2378105,-0.184289619 25.474,0.34 L21.984,2.836 L21.154,3.127 L14.086,7.919 C13.862,7.967 13.646,8.057 13.446,8.178 L8.903,9.858 C8.679,9.899 8.471,9.98 8.272,10.093 L7.984,10.198 L7.649,10.667 C7.569,10.788 7.497,10.917 7.433,11.055 C7.425,11.087 7.409,11.111 7.401,11.144 L7.225,11.474 L4.662,17.406 C4.646,17.422 4.638,17.439 4.622,17.455 L0.597,21.97 C0.557,21.995 0.509,22.02 0.469,22.052 C0.293,22.182 0.157,22.359 0.086,22.552 C-0.058,22.916 -0.026,23.345 0.221,23.684 L1.835,25.906 L3.073,25.866 L3.088,25.842 C3.26369147,25.7927225 3.38172949,25.6282117 3.37213901,25.4459927 C3.36254853,25.2637736 3.22789358,25.1125625 3.048,25.082 C2.96869698,25.0668918 2.88660581,25.0811067 2.817,25.122 L2.242,23.83 L2.242,23.442 L6.778,20.137 C6.954,20.047 7.114,19.927 7.249,19.773 L11.011,16.88 L13.159,19.15 L13.71,25.308 C13.6777631,25.3748995 13.6535935,25.4453942 13.638,25.518 C13.5786795,25.8997591 13.8394184,26.2575483 14.221,26.318 C14.2820081,26.3269332 14.3439919,26.3269332 14.405,26.318 L16.673,26.318 C16.689,26.318 16.705,26.327 16.729,26.335 C16.9114519,26.362038 17.0971199,26.3146849 17.2443364,26.2035675 C17.3915528,26.0924501 17.487988,25.9268748 17.512,25.744 C17.5459092,25.5202623 17.4684441,25.2940616 17.3044965,25.1380822 C17.1405488,24.9821029 16.9107722,24.9159947 16.689,24.961 C16.625,23.085 16.474,18.908 16.426,18.261 L14.676,15.547 L17.448,15.91 C18.651089,16.3293704 19.9779201,16.196541 21.074,15.547 L21.106,19.385 C21.178,19.603 20.211,24.993 20.211,24.993 C19.9836212,25.0855532 19.8225416,25.2919484 19.788,25.535 C19.7554591,25.7503239 19.825875,25.968436 19.9781814,26.1240833 C20.1304877,26.2797305 20.3470208,26.3548618 20.563,26.327 L22.551,26.317 L22.559,26.31 C22.9065589,26.2625291 23.165729,25.9657857 23.166,25.615 L24.356,19.32 L24.356,13.9 L27.934,20.446 L30.378,24.923 L30.394,25.011 C30.1827029,25.1120627 30.0359535,25.3121073 30.003,25.544 C29.947,25.924 30.203,26.28 30.586,26.337 C30.666,26.345 30.737,26.345 30.809,26.329 L32.862,26.329 C33.2474267,26.3256998 33.557666,26.0114372 33.5560067,25.626 C33.53483,25.4821633 33.4833619,25.3444605 33.405,25.222" id="Path" fill="#00525E" fill-rule="nonzero" mask="url(#mask-2)"></path>
        </g>
    </g>
</svg>