<svg width="34" height="27" xmlns="http://www.w3.org/2000/svg" xmlns:xlink="http://www.w3.org/1999/xlink">
    <defs>
        <path id="a" d="M0 0h33.556v26.343H0z"/>
    </defs>
    <g fill="none" fill-rule="evenodd">
        <mask id="b" fill="#fff">
            <use xlink:href="#a"/>
        </mask>
        <path d="M33.405 25.22 28.15 8.955c.135.097.28.186.439.25a2.13 2.13 0 0 0 2.787-1.163c.2-.485.208-1.003.064-1.471l-.008-.008a2.444 2.444 0 0 0-.184-.42l-.662-1.504a.417.417 0 0 0 .231-.234.425.425 0 0 0-.08-.452l-.032-.34a1.02 1.02 0 0 0-.575-1.228L27.926.557A1.934 1.934 0 0 0 25.474.34l-3.49 2.496-.83.291-7.068 4.792c-.224.048-.44.138-.64.259l-4.543 1.68c-.224.041-.432.122-.631.235l-.288.105-.335.469c-.08.121-.152.25-.216.388-.008.032-.024.056-.032.089l-.176.33-2.563 5.932c-.016.016-.024.033-.04.049L.597 21.97c-.04.025-.088.05-.128.082-.176.13-.312.307-.383.5-.144.364-.112.793.135 1.132l1.614 2.222 1.238-.04.015-.024a.39.39 0 0 0-.04-.76.333.333 0 0 0-.231.04l-.575-1.292v-.388l4.536-3.305c.176-.09.336-.21.471-.364l3.762-2.893 2.148 2.27.551 6.158a.937.937 0 0 0-.072.21.701.701 0 0 0 .583.8.635.635 0 0 0 .184 0h2.268c.016 0 .032.009.056.017a.688.688 0 0 0 .783-.591.693.693 0 0 0-.823-.783c-.064-1.876-.215-6.053-.263-6.7l-1.75-2.714 2.772.363a4.322 4.322 0 0 0 3.626-.363l.032 3.838c.072.218-.895 5.608-.895 5.608a.69.69 0 0 0-.423.542.694.694 0 0 0 .775.792l1.988-.01.008-.007a.702.702 0 0 0 .607-.695l1.19-6.295V13.9l3.578 6.546 2.444 4.477.016.088a.7.7 0 0 0-.391.533c-.056.38.2.736.583.793.08.008.151.008.223-.008h2.053a.7.7 0 0 0 .694-.703 1.027 1.027 0 0 0-.151-.404" fill="#FFF" mask="url(#b)"/>
    </g>
</svg>
